<svg width="102" height="43" viewBox="0 0 102 43" fill="none" xmlns="http://www.w3.org/2000/svg">
<g clip-path="url(#clip0_1541_2083)">
<path d="M37.8346 23.8506V32.3468H32.2861V4.6051H37.8346V18.6499L46.8523 10.1535H54.4796L43.3828 21.2502L54.4796 32.3468H46.8523L37.8346 23.8506Z" fill="white"/>
<path d="M60.399 15.2581C58.8676 15.2581 57.5582 15.7981 56.4744 16.8819C55.3907 17.9657 54.8506 19.2751 54.8506 20.8065C54.8506 22.3378 55.3907 23.6473 56.4744 24.7311C57.5582 25.8148 58.8676 26.3549 60.399 26.3549C61.9304 26.3549 63.2397 25.8148 64.3236 24.7311C65.4073 23.6473 65.9474 22.3379 65.9474 20.8065C65.9474 19.2751 65.4073 17.9657 64.3236 16.8819C63.2398 15.7981 61.9304 15.2581 60.399 15.2581ZM65.9473 30.4089C65.5294 30.653 65.0966 30.8712 64.6453 31.0562C63.2878 31.6221 61.8711 31.9032 60.399 31.9032C58.9268 31.9032 57.5101 31.6221 56.1526 31.0562C54.7914 30.4939 53.593 29.6913 52.5536 28.6518C51.5142 27.6125 50.7115 26.414 50.1493 25.0528C49.5834 23.6953 49.3022 22.2786 49.3022 20.8065C49.3022 19.3343 49.5834 17.9176 50.1493 16.5601C50.7115 15.1989 51.5142 14.0005 52.5536 12.9611C53.593 11.9217 54.7914 11.119 56.1526 10.5568C57.5101 9.99085 58.9268 9.70972 60.399 9.70972C61.8711 9.70972 63.2878 9.99085 64.6453 10.5568C66.0065 11.119 67.205 11.9217 68.2444 12.9611C69.2838 14.0005 70.0864 15.1989 70.6487 16.5601C71.2146 17.9176 71.4957 19.3343 71.4957 20.8065V31.9032H65.9474L65.9473 30.4089Z" fill="white"/>
<path d="M72.0884 20.8065V9.70972H77.6367V20.8065C77.6367 22.3378 78.1768 23.6473 79.2606 24.731C80.3443 25.8148 81.6538 26.3549 83.1851 26.3549C84.7165 26.3549 86.0259 25.8148 87.1097 24.731C88.1935 23.6473 88.7335 22.3378 88.7335 20.8065V9.70972H94.2819V31.9032C94.2819 33.3753 94.0007 34.7921 93.4348 36.1495C92.8726 37.5107 92.0699 38.7092 91.0305 39.7486C89.9911 40.788 88.7927 41.5906 87.4315 42.1529C86.074 42.7188 84.6573 42.9999 83.1851 42.9999V37.4516C84.7165 37.4516 86.0259 36.9115 87.1097 35.8278C88.1935 34.744 88.7335 33.4346 88.7335 31.9032V30.4089C88.3155 30.653 87.8827 30.8712 87.4315 31.0562C86.074 31.6221 84.6573 31.9032 83.1851 31.9032C81.7129 31.9032 80.2963 31.6221 78.9388 31.0562C77.5776 30.4939 76.3791 29.6913 75.3397 28.6518C74.3003 27.6125 73.4977 26.414 72.9354 25.0528C72.3695 23.6953 72.0884 22.2786 72.0884 20.8065Z" fill="white"/>
<path d="M101.118 31.9031H95.5699V9.70963H101.118V31.9031ZM98.3441 6.93544C97.3898 6.93544 96.5723 6.59515 95.8917 5.91826C95.2148 5.23763 94.8745 4.42018 94.8745 3.4659C94.8745 2.51526 95.2148 1.69781 95.8917 1.01718C96.5723 0.340292 97.3898 0 98.3441 0C99.2947 0 100.112 0.340292 100.793 1.01718C101.47 1.69781 101.81 2.51526 101.81 3.4659C101.81 4.42018 101.47 5.23764 100.793 5.91826C100.112 6.59515 99.2947 6.93544 98.3441 6.93544Z" fill="white"/>
<path d="M4.50989 3.48782V20.5547V21.536L5.68762 20.4891L22.766 3.4878H28.9472L11.7489 20.1956C20.2 19.0621 24.945 21.5301 26.5943 31.9072H22.7425C21.1114 22.9328 17.152 23.6608 7.23105 24.2115L7.18931 24.2138L7.14753 24.2161L7.10566 24.2184L7.06374 24.2208L7.02182 24.2231L6.97977 24.2255L6.93772 24.2278L6.89557 24.2301L6.85343 24.2325L6.8112 24.2349L6.76888 24.2373L6.72655 24.2396L6.68414 24.242L6.64168 24.2444L6.59918 24.2468L6.55663 24.2491L6.514 24.2516L6.47136 24.254L6.42863 24.2563L6.38586 24.2588L6.343 24.2612L6.30364 24.2634L6.25344 24.2662L6.20311 24.269L6.15268 24.2719L6.10766 24.2744L6.05129 24.2776L6.00027 24.2804L5.96781 24.2822L5.92319 24.2847L5.88285 24.287L5.84539 24.2891L5.79307 24.292L5.7403 24.295L5.68713 24.2979L5.63346 24.3009L5.57925 24.3039L5.5245 24.307L5.47129 24.3099L5.41321 24.3132L5.37885 24.3151L5.32802 24.3179L5.27035 24.3211L5.22064 24.3238L5.18831 24.3256L5.15274 24.3275L5.09273 24.3308L5.03181 24.3342L4.98913 24.3365L4.93883 24.3392L4.88593 24.3421L4.84374 24.3444L4.78003 24.3479L4.74636 24.3497L4.7134 24.3515L4.68017 24.3533L4.64667 24.3551L4.61291 24.3569L4.55982 24.3598L4.52191 24.3618L4.50985 25.0063V31.9072H0.697754V3.48779L4.50989 3.48782Z" fill="white"/>
<path fill-rule="evenodd" clip-rule="evenodd" d="M7.75 13.877L18.1863 3.48779H7.75V13.877Z" fill="white"/>
<path fill-rule="evenodd" clip-rule="evenodd" d="M30.3485 6.63135L19.4717 17.1979C20.9885 17.583 22.3683 18.2081 23.6209 19.1148C26.7881 21.4072 28.813 25.2915 29.784 31.4007L29.8644 31.907H30.3485L30.3485 6.63135Z" fill="#FC0404"/>
<path fill-rule="evenodd" clip-rule="evenodd" d="M19.4517 31.9074C18.3331 26.8043 15.4869 26.9701 8.90766 27.3533L8.73706 27.3632L7.75 27.4225V31.9074L19.4517 31.9074Z" fill="white"/>
</g>
<defs>
<clipPath id="clip0_1541_2083">
<rect width="101.112" height="43" fill="white" transform="translate(0.697754)"/>
</clipPath>
</defs>
</svg>
